<svg xmlns="http://www.w3.org/2000/svg" viewBox="0 0 310 75" width="310" height="75">
  <g transform="translate(6, 6)">
    <!-- Sleek Geometric Industrial Steel Ribbon B -->
    <path d="M 0 3 C 0 1.3 1.3 0 3 0 L 28 0 C 39 0 48 7.5 48 17.5 C 48 24.5 43 30.5 35 33 C 44 35.5 50 42.5 50 52 C 50 62.5 40 70 28 70 L 3 70 C 1.3 70 0 68.7 0 67 Z" fill="#0E2A47"/>
    <path d="M 12 12 L 26 12 C 31 12 35 14.5 35 19 C 35 23.5 31 26 26 26 L 12 26 Z" fill="#FFFFFF"/>
    <path d="M 12 38 L 28 38 C 33 38 37 41 37 46 C 37 51 33 54 28 54 L 12 54 Z" fill="#FFFFFF"/>
    <path d="M 28 12 L 40 0 L 50 12 L 38 24 Z" fill="#D9381E"/>
  </g>
  <text x="74" y="32" font-family="'Montserrat', 'Inter', Arial, sans-serif" font-weight="900" font-size="20" fill="#0E2A47" letter-spacing="0.8">BHUSHAN</text>
  <text x="74" y="55" font-family="'Montserrat', 'Inter', Arial, sans-serif" font-weight="800" font-size="16" fill="#D9381E" letter-spacing="1.2">POWER &amp; STEEL</text>
</svg>
